HIERARCHY
ROOT hip
{
  OFFSET 0 0 0
  CHANNELS 6 Xposition Yposition Zposition Zrotation Yrotation Xrotation
  JOINT abdomen
  {
    OFFSET 0 20.6881 -0.73152
    CHANNELS 3 Zrotation Xrotation Yrotation
    JOINT chest
    {
      OFFSET 0 11.7043 -0.48768
      CHANNELS 3 Zrotation Xrotation Yrotation
      JOINT neck
      {
        OFFSET 0 22.1894 -2.19456
        CHANNELS 3 Zrotation Xrotation Yrotation
        JOINT head
        {
          OFFSET -0.24384 7.07133 1.2192
          CHANNELS 3 Zrotation Xrotation Yrotation
          JOINT leftEye
          {
            OFFSET 4.14528 8.04674 8.04672
            CHANNELS 3 Zrotation Xrotation Yrotation
            End Site
            {
              OFFSET 1 0 0
            }
          }
          JOINT rightEye
          {
            OFFSET -3.6576 8.04674 8.04672
            CHANNELS 3 Zrotation Xrotation Yrotation
            End Site
            {
              OFFSET 1 0 0
            }
          }
        }
      }
      JOINT rCollar
      {
        OFFSET -2.68224 19.2634 -4.8768
        CHANNELS 3 Zrotation Xrotation Yrotation
        JOINT rShldr
        {
          OFFSET -8.77824 -1.95073 1.46304
          CHANNELS 3 Zrotation Xrotation Yrotation
          JOINT rForeArm
          {
            OFFSET -28.1742 -1.7115 0.48768
            CHANNELS 3 Zrotation Xrotation Yrotation
            JOINT rHand
            {
              OFFSET -22.5879 0.773209 7.07136
              CHANNELS 3 Zrotation Xrotation Yrotation
              JOINT rThumb1
              {
                OFFSET -1.2192 -0.487915 3.41376
                CHANNELS 3 Zrotation Xrotation Yrotation
                JOINT rThumb2
                {
                  OFFSET -3.37035 -0.52449 3.41376
                  CHANNELS 3 Zrotation Xrotation Yrotation
                  End Site
                  {
                    OFFSET -1.78271 -1.18214 1.43049
                  }
                }
              }
              JOINT rIndex1
              {
                OFFSET -7.75947 0.938293 5.60832
                CHANNELS 3 Zrotation Xrotation Yrotation
                JOINT rIndex2
                {
                  OFFSET -2.54057 -0.884171 1.56538
                  CHANNELS 3 Zrotation Xrotation Yrotation
                  End Site
                  {
                    OFFSET -1.62519 -0.234802 1.16502
                  }
                }
              }
              JOINT rMid1
              {
                OFFSET -8.24714 1.18213 3.41376
                CHANNELS 3 Zrotation Xrotation Yrotation
                JOINT rMid2
                {
                  OFFSET -3.10165 -0.590103 1.0647
                  CHANNELS 3 Zrotation Xrotation Yrotation
                  End Site
                  {
                    OFFSET -2.48547 -0.328903 0.83742
                  }
                }
              }
              JOINT rRing1
              {
                OFFSET -8.82822 0.546677 1.51678
                CHANNELS 3 Zrotation Xrotation Yrotation
                JOINT rRing2
                {
                  OFFSET -2.60934 -0.819778 -0.0198488
                  CHANNELS 3 Zrotation Xrotation Yrotation
                  End Site
                  {
                    OFFSET -2.33842 -0.294052 0.168128
                  }
                }
              }
              JOINT rPinky1
              {
                OFFSET -8.27202 -0.0477905 -0.4584
                CHANNELS 3 Zrotation Xrotation Yrotation
                JOINT rPinky2
                {
                  OFFSET -1.82734 -0.647385 -0.700984
                  CHANNELS 3 Zrotation Xrotation Yrotation
                  End Site
                  {
                    OFFSET -1.69225 -0.51767 -0.607171
                  }
                }
              }
            }
          }
        }
      }
      JOINT lCollar
      {
        OFFSET 2.68224 19.2634 -4.8768
        CHANNELS 3 Zrotation Xrotation Yrotation
        JOINT lShldr
        {
          OFFSET 8.77824 -1.95073 1.46304
          CHANNELS 3 Zrotation Xrotation Yrotation
          JOINT lForeArm
          {
            OFFSET 28.1742 -1.7115 0.48768
            CHANNELS 3 Zrotation Xrotation Yrotation
            JOINT lHand
            {
              OFFSET 22.5879 0.773209 7.07136
              CHANNELS 3 Zrotation Xrotation Yrotation
              JOINT lThumb1
              {
                OFFSET 1.2192 -0.487915 3.41376
                CHANNELS 3 Zrotation Xrotation Yrotation
                JOINT lThumb2
                {
                  OFFSET 3.37035 -0.52449 3.41376
                  CHANNELS 3 Zrotation Xrotation Yrotation
                  End Site
                  {
                    OFFSET 1.78271 -1.18214 1.43049
                  }
                }
              }
              JOINT lIndex1
              {
                OFFSET 7.75947 0.938293 5.60832
                CHANNELS 3 Zrotation Xrotation Yrotation
                JOINT lIndex2
                {
                  OFFSET 2.54057 -0.884171 1.56538
                  CHANNELS 3 Zrotation Xrotation Yrotation
                  End Site
                  {
                    OFFSET 1.62519 -0.234802 1.16502
                  }
                }
              }
              JOINT lMid1
              {
                OFFSET 8.24714 1.18213 3.41376
                CHANNELS 3 Zrotation Xrotation Yrotation
                JOINT lMid2
                {
                  OFFSET 3.10165 -0.590103 1.0647
                  CHANNELS 3 Zrotation Xrotation Yrotation
                  End Site
                  {
                    OFFSET 2.48547 -0.328903 0.83742
                  }
                }
              }
              JOINT lRing1
              {
                OFFSET 8.82822 0.546677 1.51678
                CHANNELS 3 Zrotation Xrotation Yrotation
                JOINT lRing2
                {
                  OFFSET 2.60934 -0.819778 -0.0198488
                  CHANNELS 3 Zrotation Xrotation Yrotation
                  End Site
                  {
                    OFFSET 2.33842 -0.294052 0.168128
                  }
                }
              }
              JOINT lPinky1
              {
                OFFSET 8.27202 -0.0477905 -0.4584
                CHANNELS 3 Zrotation Xrotation Yrotation
                JOINT lPinky2
                {
                  OFFSET 1.82734 -0.647385 -0.700984
                  CHANNELS 3 Zrotation Xrotation Yrotation
                  End Site
                  {
                    OFFSET 1.69225 -0.51767 -0.607171
                  }
                }
              }
            }
          }
        }
      }
    }
  }
  JOINT rButtock
  {
    OFFSET -8.77824 4.35084 1.2192
    CHANNELS 3 Zrotation Xrotation Yrotation
    JOINT rThigh
    {
      OFFSET 0 -1.70687 -2.19456
      CHANNELS 3 Zrotation Xrotation Yrotation
      JOINT rShin
      {
        OFFSET 0 -36.8199 0.73152
        CHANNELS 3 Zrotation Xrotation Yrotation
        JOINT rFoot
        {
          OFFSET 0.73152 -45.1104 -5.12064
          CHANNELS 3 Zrotation Xrotation Yrotation
          End Site
          {
            OFFSET -1.1221 -3.69964 12.103
          }
        }
      }
    }
  }
  JOINT lButtock
  {
    OFFSET 8.77824 4.35084 1.2192
    CHANNELS 3 Zrotation Xrotation Yrotation
    JOINT lThigh
    {
      OFFSET 0 -1.70687 -2.19456
      CHANNELS 3 Zrotation Xrotation Yrotation
      JOINT lShin
      {
        OFFSET 0 -36.8199 0.73152
        CHANNELS 3 Zrotation Xrotation Yrotation
        JOINT lFoot
        {
          OFFSET -0.73152 -45.1104 -5.12064
          CHANNELS 3 Zrotation Xrotation Yrotation
          End Site
          {
            OFFSET 1.1221 -3.69964 12.103
          }
        }
      }
    }
  }
}
MOTION
Frames:	8
Frame Time:	0.00833333
-11.6775 57.4807 -171.13101 -11.993999 -47.088295 10.924999 2.0595803 14.342001 14.269401 -0.46742496 -14.0637 3.96029 -0.06169481 13.320399 8.15122 5.9629107 -22.1261 17.2204 0.0 0.0 0.0 0.0 0.0 0.0 -3.15534e-13 -1.74981e-14 9.2256e-13 64.414665 79.549095 1.3606745 -26.7901 -44.554897 92.5552 -35.353996 -78.3035 -42.75419 1.8064901e-09 -7.58015e-09 -3.52146e-09 3.3205e-09 -1.45347006e-08 -5.85204e-09 1.8065e-09 -7.58015e-09 -3.52147e-09 7.730911 5.47488 0.41731405 1.8064901e-09 -7.58015e-09 -3.52146e-09 2.90554 0.965183 0.102902 1.8064901e-09 -7.58015e-09 -3.52146e-09 10.2786 0.73180103 0.025912303 1.8064901e-09 -7.5801605e-09 -3.52146e-09 2.2216702 -0.733487 -0.20892 -3.15778e-13 -1.7489201e-14 9.22212e-13 -66.057 11.711497 -42.15 28.4286 -36.199497 -77.340996 0.510151 19.871698 -2.9116697 1.82587e-09 -1.74062e-10 -4.65666e-09 3.0907301e-09 -1.83133e-10 -8.07909e-09 1.8258501e-09 -1.74044e-10 -4.65666e-09 -7.730911 5.47488 -0.41731405 1.82586e-09 -1.74045e-10 -4.65667e-09 -2.90554 0.965183 -0.102902 1.82587e-09 -1.74063e-10 -4.65666e-09 -10.2786 0.73180103 -0.025912303 1.8258799e-09 -1.74064e-10 -4.65668e-09 -2.2216702 -0.733487 0.20892 -2.03217e-16 8e-44 -3.88251e-19 -27.3724 -34.147 -40.1754 -159.917 87.0866 161.37004 -10.9396 -23.666199 -17.557398 2.03217e-16 8e-44 3.88251e-19 86.82 -50.0032 79.326996 10.587029 84.374504 -10.404007 0.76658887 7.5492597 13.473998
-11.6589 57.405197 -171.17601 -12.186 -47.2577 11.14 2.0922198 14.3825 14.3806 -0.49803707 -14.148401 3.9903307 -0.011814563 13.3229 8.15369 5.9452896 -22.001802 17.207901 0.0 0.0 0.0 0.0 0.0 0.0 -1.34733e-13 4.57946e-14 -6.9500097e-13 64.466415 79.5626 1.2908753 -26.793499 -44.546402 92.53809 -35.654102 -78.3688 -43.060696 1.88958e-09 -1.34947005e-08 1.34046e-09 3.15398e-09 -2.29642e-08 2.37569e-09 1.88958e-09 -1.34947005e-08 1.3404501e-09 7.730911 5.47488 0.41731405 1.88958e-09 -1.34947005e-08 1.34046e-09 2.90554 0.965183 0.102902 1.88958e-09 -1.34947005e-08 1.34046e-09 10.2786 0.73180103 0.025912303 1.88958e-09 -1.34947005e-08 1.34046e-09 2.2216702 -0.733487 -0.20892 -1.3492999e-13 4.57946e-14 -6.95253e-13 -66.142296 11.643803 -42.0598 28.427895 -36.213295 -77.367 0.529249 20.2241 -2.9678102 -1.56151e-09 5.28816e-10 2.40916e-09 -2.66632e-09 8.5070195e-10 4.1906203e-09 -1.56153e-09 5.28828e-10 2.40916e-09 -7.730911 5.47488 -0.41731405 -1.5615199e-09 5.28826e-10 2.40916e-09 -2.90554 0.965183 -0.102902 -1.56151e-09 5.2881505e-10 2.40916e-09 -10.2786 0.73180103 -0.025912303 -1.5614999e-09 5.28814e-10 2.40914e-09 -2.2216702 -0.733487 0.20892 -2.03217e-16 8e-44 -3.88251e-19 -27.335197 -34.368103 -40.155502 -160.862 86.94019 162.31602 -10.962199 -23.798098 -17.537998 2.03217e-16 8e-44 3.88251e-19 87.07921 -49.8588 79.423004 10.795802 84.4743 -10.616091 0.790599 7.45786 13.4285
-11.6357 57.3282 -171.21 -12.263999 -47.443195 11.264 2.13124 14.4103 14.4588995 -0.54325897 -14.2414 4.0092998 0.03876374 13.323699 8.15966 5.92579 -21.881 17.2018 0.0 0.0 0.0 0.0 0.0 0.0 1.64004e-14 2.6243701e-14 -1.9305e-12 64.3893 79.5666 1.3299868 -26.799702 -44.531204 92.5073 -36.213615 -78.4877 -43.6318 1.3454701e-09 -1.46658e-08 5.57803e-09 1.95358e-09 -2.34029e-08 9.51211e-09 1.3454701e-09 -1.46658e-08 5.57803e-09 7.730911 5.47488 0.41731405 1.3454701e-09 -1.46658e-08 5.57803e-09 2.90554 0.965183 0.102902 1.34548e-09 -1.46658e-08 5.57803e-09 10.2786 0.73180103 0.025912303 1.34546e-09 -1.46658e-08 5.5780403e-09 2.2216702 -0.733487 -0.20892 1.62511e-14 2.6234899e-14 -1.93065e-12 -66.2121 11.566402 -41.9813 28.4274 -36.218304 -77.377495 0.548482 20.5656 -3.0225801 -4.4185997e-09 1.2120499e-09 8.0705895e-09 -7.52568e-09 1.88217e-09 1.40253e-08 -4.41861e-09 1.21206e-09 8.0706e-09 -7.730911 5.47488 -0.41731405 -4.41861e-09 1.2120499e-09 8.0705895e-09 -2.90554 0.965183 -0.102902 -4.4185997e-09 1.2120499e-09 8.070581e-09 -10.2786 0.73180103 -0.025912303 -4.41859e-09 1.2120499e-09 8.07057e-09 -2.2216702 -0.733487 0.20892 -2.03217e-16 8e-44 -3.88251e-19 -27.2894 -34.6107 -40.125305 -161.70404 86.7955 163.15999 -10.968401 -23.916101 -17.497902 2.03217e-16 8e-44 3.88251e-19 87.362686 -49.7533 79.5445 11.012779 84.57379 -10.836288 0.810902 7.3737307 13.363
-11.588301 57.2443 -171.244 -12.292999 -47.5859 11.408001 2.1154299 14.350699 14.4332 -0.6176859 -14.295098 3.9927695 0.058270898 13.3088 8.172971 5.9508095 -21.8239 17.2274 0.0 0.0 0.0 0.0 0.0 0.0 -2.08017e-13 -3.65959e-13 -5.61247e-13 63.838104 79.5879 1.865502 -26.8134 -44.4973 92.4389 -36.4473 -78.5363 -43.870296 -5.09593e-10 3.8887601e-10 2.88807e-09 -1.04772e-09 1.6499e-09 4.85807e-09 -5.0958804e-10 3.88888e-10 2.88807e-09 7.730911 5.47488 0.41731405 -5.09593e-10 3.8888e-10 2.88807e-09 2.90554 0.965183 0.102902 -5.09586e-10 3.8888e-10 2.88807e-09 10.2786 0.73180103 0.025912303 -5.09601e-10 3.8887701e-10 2.88807e-09 2.2216702 -0.733487 -0.20892 -2.08215e-13 -3.65967e-13 -5.61433e-13 -66.1865 11.473498 -41.9814 28.427994 -36.194798 -77.33739 0.53202796 20.2738 -2.97578 -2.07518e-09 8.3888996e-10 2.12257e-09 -3.5547099e-09 1.3751e-09 3.7091399e-09 -2.07519e-09 8.38902e-10 2.12258e-09 -7.730911 5.47488 -0.41731405 -2.07519e-09 8.38901e-10 2.12257e-09 -2.90554 0.965183 -0.102902 -2.07518e-09 8.3889706e-10 2.1225601e-09 -10.2786 0.73180103 -0.025912303 -2.07517e-09 8.3889495e-10 2.12255e-09 -2.2216702 -0.733487 0.20892 -2.03217e-16 8e-44 -3.88251e-19 -27.401102 -34.9494 -40.1822 -162.69601 86.604996 164.151 -10.933599 -23.9799 -17.407701 2.03217e-16 8e-44 3.88251e-19 87.6597 -49.8026 79.812996 11.251598 84.6785 -11.076996 0.831066 7.302279 13.3617
-11.4957 57.137802 -171.269 -12.228001 -47.5655 11.538 2.08733 14.283999 14.379101 -0.69177806 -14.332702 3.9669707 0.074225195 13.3008995 8.1921 5.96296 -21.8105 17.265701 0.0 0.0 0.0 0.0 0.0 0.0 -3.9742e-13 -6.64734e-13 9.129679e-13 63.153606 79.62501 2.5187078 -26.825901 -44.465904 92.3757 -36.458797 -78.5387 -43.881992 -2.08772e-09 1.44587e-08 -5.3661003e-10 -3.52968e-09 2.4736199e-08 -1.0236e-09 -2.08771e-09 1.44587e-08 -5.3661003e-10 7.730911 5.47488 0.41731405 -2.08772e-09 1.44587e-08 -5.36614e-10 2.90554 0.965183 0.102902 -2.08771e-09 1.44587e-08 -5.3661003e-10 10.2786 0.73180103 0.025912303 -2.08773e-09 1.44587e-08 -5.36604e-10 2.2216702 -0.733487 -0.20892 -3.97645e-13 -6.64739e-13 9.1272e-13 -66.147606 11.360399 -42.0143 28.428799 -36.162598 -77.282 0.512776 19.920097 -2.91939 6.41104e-10 4.01181e-10 -4.30043e-09 1.0534601e-09 7.72115e-10 -7.4355397e-09 6.4109196e-10 4.0119602e-10 -4.30043e-09 -7.730911 5.47488 -0.41731405 6.41098e-10 4.01198e-10 -4.30044e-09 -2.90554 0.965183 -0.102902 6.41099e-10 4.01191e-10 -4.30044e-09 -10.2786 0.73180103 -0.025912303 6.41107e-10 4.0119e-10 -4.30044e-09 -2.2216702 -0.733487 0.20892 -2.03217e-16 8e-44 -3.88251e-19 -27.5241 -35.279697 -40.23159 -163.552 86.4206 165.00499 -10.890901 -24.0172 -17.3152 2.03217e-16 8e-44 3.88251e-19 87.947205 -49.867302 80.1159 11.497406 84.7818 -11.324189 0.851606 7.231789 13.378301
-11.451401 57.0737 -171.285 -12.204 -47.6371 11.587 2.0719202 14.291201 14.358201 -0.735114 -14.3586 3.95274 0.10910014 13.333301 8.218611 5.8937497 -21.875298 17.3068 0.0 0.0 0.0 0.0 0.0 0.0 -1.27998e-13 -3.51002e-13 6.89068e-14 62.585167 79.6866 3.0056221 -26.828003 -44.460796 92.3655 -36.013603 -78.4456 -43.427715 -1.68884e-09 1.03110995e-08 8.97311e-10 -2.9426002e-09 1.81388e-08 1.42141e-09 -1.68884e-09 1.03110995e-08 8.97307e-10 7.730911 5.47488 0.41731405 -1.68884e-09 1.03110995e-08 8.9730506e-10 2.90554 0.965183 0.102902 -1.68884e-09 1.03110995e-08 8.97311e-10 10.2786 0.73180103 0.025912303 -1.6888501e-09 1.03110995e-08 8.9731894e-10 2.2216702 -0.733487 -0.20892 -1.2809099e-13 -3.51007e-13 6.8652197e-14 -66.167404 11.206602 -42.057903 28.429201 -36.141 -77.245705 0.516429 19.9871 -2.93006 -7.73566e-10 8.71161e-10 -5.84383e-10 -1.34209e-09 1.49751e-09 -9.927931e-10 -7.73576e-10 8.71169e-10 -5.84371e-10 -7.730911 5.47488 -0.41731405 -7.73568e-10 8.71171e-10 -5.84383e-10 -2.90554 0.965183 -0.102902 -7.73569e-10 8.71167e-10 -5.8438604e-10 -10.2786 0.73180103 -0.025912303 -7.73561e-10 8.71168e-10 -5.84389e-10 -2.2216702 -0.733487 0.20892 -2.03217e-16 8e-44 -3.88251e-19 -27.522703 -35.4971 -40.1624 -164.08998 86.294 165.54301 -10.8731 -24.04 -17.273401 2.03217e-16 8e-44 3.88251e-19 88.173706 -49.8162 80.34801 11.72931 84.8757 -11.556903 0.87464 7.1489697 13.3924
-11.425501 57.003498 -171.30801 -12.281 -47.7292 11.705 2.0614 14.2953005 14.341499 -0.7645711 -14.382201 3.9420097 0.14614005 13.3603 8.24719 5.82347 -21.914999 17.349598 0.0 0.0 0.0 0.0 0.0 0.0 2.14623e-13 1.2643e-13 -1.10037e-12 62.062893 79.773895 3.4285553 -26.827398 -44.4624 92.3687 -35.567703 -78.3501 -42.972496 -3.3328398e-10 -5.05598e-10 2.6851699e-09 -7.41839e-10 1.35323e-10 4.51956e-09 -3.33285e-10 -5.05586e-10 2.6851699e-09 7.730911 5.47488 0.41731405 -3.3328798e-10 -5.05584e-10 2.6851699e-09 2.90554 0.965183 0.102902 -3.3328101e-10 -5.05591e-10 2.6851699e-09 10.2786 0.73180103 0.025912303 -3.33293e-10 -5.05595e-10 2.6851799e-09 2.2216702 -0.733487 -0.20892 2.1466702e-13 1.26425e-13 -1.10062e-12 -66.1965 11.052197 -42.108498 28.429802 -36.1115 -77.196205 0.52363515 20.1191 -2.9511096 -2.6204399e-09 1.27088e-09 4.62696e-09 -4.46531e-09 2.07005e-09 8.04034e-09 -2.62045e-09 1.27088e-09 4.6269797e-09 -7.730911 5.47488 -0.41731405 -2.6204399e-09 1.27088e-09 4.62697e-09 -2.90554 0.965183 -0.102902 -2.6204399e-09 1.27088e-09 4.62696e-09 -10.2786 0.73180103 -0.025912303 -2.6204299e-09 1.27088e-09 4.62695e-09 -2.2216702 -0.733487 0.20892 -2.03217e-16 8e-44 -3.88251e-19 -27.524597 -35.6759 -40.1108 -164.54298 86.17991 165.99797 -10.856799 -24.0551 -17.2376 2.03217e-16 8e-44 3.88251e-19 88.402596 -49.745804 80.59411 11.9717045 84.97001 -11.800009 0.898484 7.06377 13.4104
-11.385301 56.9322 -171.33301 -12.327001 -47.768402 11.858001 2.0639002 14.221702 14.3118 -0.7854271 -14.415401 3.93267 0.17457896 13.335801 8.275781 5.8228097 -21.7988 17.395102 0.0 0.0 0.0 0.0 0.0 0.0 3.74766e-13 5.6412795e-13 -1.1439099e-12 61.625072 79.9051 3.7631857 -26.828402 -44.459797 92.36351 -35.5778 -78.3523 -42.98279 2.23691e-09 -1.56598e-08 1.05916e-09 3.75641e-09 -2.66591e-08 1.9162298e-09 2.23692e-09 -1.56598e-08 1.05916e-09 7.730911 5.47488 0.41731405 2.23691e-09 -1.56598e-08 1.05916e-09 2.90554 0.965183 0.102902 2.23692e-09 -1.56598e-08 1.05916e-09 10.2786 0.73180103 0.025912303 2.23691e-09 -1.56598e-08 1.0591701e-09 2.2216702 -0.733487 -0.20892 3.74808e-13 5.64125e-13 -1.14416e-12 -66.203995 10.9316 -42.152103 28.430702 -36.0529 -77.0977 0.5216201 20.0823 -2.94524 -2.0922302e-09 7.08495e-10 5.19992e-09 -3.5480499e-09 1.10087e-09 9.01846e-09 -2.0922302e-09 7.08494e-10 5.1999303e-09 -7.730911 5.47488 -0.41731405 -2.0922302e-09 7.08495e-10 5.1999303e-09 -2.90554 0.965183 -0.102902 -2.0922302e-09 7.08496e-10 5.19992e-09 -10.2786 0.73180103 -0.025912303 -2.09222e-09 7.08497e-10 5.19991e-09 -2.2216702 -0.733487 0.20892 -2.03217e-16 8e-44 -3.88251e-19 -27.645403 -35.862797 -40.2268 -165.06203 86.0405 166.517 -10.823 -24.0746 -17.1678 2.03217e-16 8e-44 3.88251e-19 88.714905 -49.725304 80.9413 12.256 85.075294 -12.084996 0.921131 6.98634 13.432899
